<svg width="350" height="26" viewBox="0 0 350 26" fill="none" xmlns="http://www.w3.org/2000/svg">
  <path
    d="M350 10V0.559999H349.52V10H350ZM349.04 10V0.559999H347.6V10H349.04ZM346.64 10V0.559999H345.68V10H346.64ZM344.719 10V0.559999H344.239V10H344.719ZM343.759 10V0.559999H342.319V10H343.759ZM341.359 10V0.559999H340.399V10H341.359ZM339.438 10V0.559999H337.997V10H339.438ZM337.517 10V0.559999H336.557V10H337.517ZM336.077 10V0.559999H335.597V10H336.077ZM334.156 10V0.559999H333.676V10H334.156ZM332.236 10V0.559999H330.796V10H332.236ZM330.316 10V0.559999H329.356V10H330.316ZM328.875 10V0.559999H327.915V10H328.875ZM327.435 10V0.559999H325.995V10H327.435ZM325.515 10V0.559999H324.075V10H325.515ZM323.594 10V0.559999H322.634V10H323.594ZM321.194 10V0.559999H320.714V10H321.194ZM320.234 10V0.559999H318.794V10H320.234ZM318.312 10V0.559999H317.352V10H318.312ZM316.872 10V0.559999H315.912V10H316.872ZM314.952 10V0.559999H313.992V10H314.952ZM313.031 10V0.559999H312.551V10H313.031ZM312.071 10V0.559999H311.591V10H312.071ZM310.151 10V0.559999H309.191V10H310.151ZM307.75 10V0.559999H306.79V10H307.75ZM305.35 10V0.559999H304.87V10H305.35ZM303.43 10V0.559999H302.95V10H303.43ZM302.469 10V0.559999H301.509V10H302.469ZM301.029 10V0.559999H300.069V10H301.029ZM299.109 10V0.559999H298.149V10H299.109ZM297.188 10V0.559999H296.707V10H297.188ZM295.267 10V0.559999H294.787V10H295.267ZM293.347 10V0.559999H292.387V10H293.347ZM291.906 10V0.559999H291.426V10H291.906ZM289.986 10V0.559999H288.546V10H289.986ZM288.066 10V0.559999H287.106V10H288.066ZM286.625 10V0.559999H286.145V10H286.625ZM285.665 10V0.559999H284.225V10H285.665ZM283.745 10V0.559999H282.785V10H283.745ZM281.344 10V0.559999H279.904V10H281.344ZM279.424 10V0.559999H277.984V10H279.424ZM277.504 10V0.559999H276.544V10H277.504ZM276.062 10V0.559999H275.582V10H276.062ZM275.102 10V0.559999H274.622V10H275.102ZM273.182 10V0.559999H272.222V10H273.182ZM270.781 10V0.559999H270.301V10H270.781ZM269.821 10V0.559999H268.381V10H269.821ZM266.941 10V0.559999H265.981V10H266.941ZM265.5 10V0.559999H264.54V10H265.5ZM263.1 10V0.559999H262.62V10H263.1ZM261.18 10V0.559999H260.7V10H261.18ZM260.219 10V0.559999H259.739V10H260.219ZM258.299 10V0.559999H256.859V10H258.299ZM256.379 10V0.559999H255.419V10H256.379ZM254.938 10V0.559999H254.457V10H254.938ZM253.977 10V0.559999H252.537V10H253.977ZM251.097 10V0.559999H250.137V10H251.097ZM249.656 10V0.559999H248.696V10H249.656ZM248.216 10V0.559999H247.256V10H248.216ZM246.296 10V0.559999H245.336V10H246.296ZM244.375 10V0.559999H243.415V10H244.375ZM242.935 10V0.559999H241.495V10H242.935ZM240.055 10V0.559999H239.575V10H240.055ZM239.094 10V0.559999H238.614V10H239.094ZM237.174 10V0.559999H235.734V10H237.174ZM235.254 10V0.559999H234.294V10H235.254ZM233.812 10V0.559999H232.852V10H233.812ZM232.372 10V0.559999H231.412V10H232.372ZM230.452 10V0.559999H229.492V10H230.452ZM228.531 10V0.559999H227.571V10H228.531ZM227.091 10V0.559999H226.611V10H227.091ZM225.171 10V0.559999H223.731V10H225.171ZM223.25 10V0.559999H222.29V10H223.25ZM221.81 10V0.559999H220.37V10H221.81ZM219.89 10V0.559999H218.45V10H219.89ZM217.969 10V0.559999H217.009V10H217.969ZM215.569 10V0.559999H215.089V10H215.569ZM213.649 10V0.559999H213.169V10H213.649ZM212.688 10V0.559999H211.727V10H212.688ZM211.247 10V0.559999H209.807V10H211.247ZM208.367 10V0.559999H207.887V10H208.367ZM207.406 10V0.559999H206.446V10H207.406ZM205.966 10V0.559999H205.006V10H205.966ZM204.046 10V0.559999H203.086V10H204.046ZM202.125 10V0.559999H201.645V10H202.125ZM201.165 10V0.559999H199.725V10H201.165ZM198.285 10V0.559999H197.325V10H198.285ZM196.844 10V0.559999H195.884V10H196.844ZM194.444 10V0.559999H193.964V10H194.444ZM192.524 10V0.559999H192.044V10H192.524ZM191.562 10V0.559999H191.082V10H191.562ZM189.642 10V0.559999H189.162V10H189.642ZM187.722 10V0.559999H186.762V10H187.722ZM186.281 10V0.559999H185.801V10H186.281ZM184.361 10V0.559999H182.921V10H184.361ZM182.441 10V0.559999H181.481V10H182.441ZM181 10V0.559999H180.04V10H181ZM179.56 10V0.559999H178.12V10H179.56ZM176.68 10V0.559999H176.2V10H176.68ZM175.719 10V0.559999H174.759V10H175.719ZM173.319 10V0.559999H172.839V10H173.319ZM171.399 10V0.559999H170.919V10H171.399ZM170.438 10V0.559999H169.957V10H170.438ZM169.477 10V0.559999H168.037V10H169.477ZM166.597 10V0.559999H165.637V10H166.597ZM165.156 10V0.559999H164.676V10H165.156ZM163.236 10V0.559999H162.276V10H163.236ZM161.796 10V0.559999H161.316V10H161.796ZM159.875 10V0.559999H158.915V10H159.875ZM158.435 10V0.559999H157.475V10H158.435ZM156.515 10V0.559999H155.555V10H156.515ZM153.954 6.336V5.088H147.234V6.336H153.954ZM146.594 10V0.559999H145.634V10H146.594ZM145.154 10V0.559999H144.194V10H145.154ZM143.234 10V0.559999H142.274V10H143.234ZM141.312 10V0.559999H139.872V10H141.312ZM139.392 10V0.559999H137.952V10H139.392ZM137.472 10V0.559999H136.512V10H137.472ZM136.031 10V0.559999H135.551V10H136.031ZM134.111 10V0.559999H132.671V10H134.111ZM132.191 10V0.559999H131.231V10H132.191ZM130.75 10V0.559999H129.31V10H130.75ZM128.83 10V0.559999H128.35V10H128.83ZM126.91 10V0.559999H125.95V10H126.91ZM125.469 10V0.559999H124.989V10H125.469ZM123.549 10V0.559999H122.589V10H123.549ZM122.109 10V0.559999H121.629V10H122.109ZM120.188 10V0.559999H119.227V10H120.188ZM117.787 10V0.559999H117.307V10H117.787ZM116.827 10V0.559999H115.387V10H116.827ZM114.906 10V0.559999H114.426V10H114.906ZM112.986 10V0.559999H112.026V10H112.986ZM111.546 10V0.559999H111.066V10H111.546ZM109.625 10V0.559999H109.145V10H109.625ZM108.665 10V0.559999H107.705V10H108.665ZM106.265 10V0.559999H105.785V10H106.265ZM104.344 10V0.559999H103.384V10H104.344ZM102.904 10V0.559999H101.944V10H102.904ZM100.984 10V0.559999H100.024V10H100.984ZM99.0625 10V0.559999H98.5825V10H99.0625ZM97.1425 10V0.559999H96.6625V10H97.1425ZM96.1825 10V0.559999H95.2225V10H96.1825ZM93.7812 10V0.559999H92.3412V10H93.7812ZM91.8612 10V0.559999H90.9012V10H91.8612ZM90.4212 10V0.559999H89.9412V10H90.4212ZM88.5 10V0.559999H87.54V10H88.5ZM87.06 10V0.559999H86.1V10H87.06ZM85.14 10V0.559999H84.18V10H85.14ZM83.2188 10V0.559999H81.7787V10H83.2188ZM81.2987 10V0.559999H79.8587V10H81.2987ZM79.3787 10V0.559999H78.4187V10H79.3787ZM77.9375 10V0.559999H76.9775V10H77.9375ZM76.4975 10V0.559999H75.0575V10H76.4975ZM74.5775 10V0.559999H73.1375V10H74.5775ZM72.6562 10V0.559999H72.1762V10H72.6562ZM70.7362 10V0.559999H69.7762V10H70.7362ZM68.3362 10V0.559999H67.8562V10H68.3362ZM67.375 10V0.559999H66.895V10H67.375ZM65.455 10V0.559999H64.495V10H65.455ZM63.055 10V0.559999H62.575V10H63.055ZM62.0938 10V0.559999H60.6537V10H62.0938ZM60.1737 10V0.559999H59.2137V10H60.1737ZM58.7337 10V0.559999H58.2537V10H58.7337ZM56.8125 10V0.559999H55.8525V10H56.8125ZM55.3725 10V0.559999H54.4125V10H55.3725ZM53.4525 10V0.559999H52.4925V10H53.4525ZM51.5312 10V0.559999H50.5712V10H51.5312ZM50.0912 10V0.559999H48.6512V10H50.0912ZM48.1712 10V0.559999H47.6912V10H48.1712ZM46.25 10V0.559999H45.77V10H46.25ZM45.29 10V0.559999H43.85V10H45.29ZM43.37 10V0.559999H42.41V10H43.37ZM40.9688 10V0.559999H40.4887V10H40.9688ZM40.0087 10V0.559999H39.5287V10H40.0087ZM38.0887 10V0.559999H37.1287V10H38.0887ZM35.6875 10V0.559999H34.7275V10H35.6875ZM33.2875 10V0.559999H32.8075V10H33.2875ZM32.3275 10V0.559999H30.8875V10H32.3275ZM30.4062 10V0.559999H29.4462V10H30.4062ZM28.9662 10V0.559999H27.5262V10H28.9662ZM26.0862 10V0.559999H25.6062V10H26.0862ZM25.125 10V0.559999H24.165V10H25.125ZM23.685 10V0.559999H22.725V10H23.685ZM21.765 10V0.559999H20.805V10H21.765ZM19.8438 10V0.559999H18.4037V10H19.8438ZM17.9237 10V0.559999H17.4437V10H17.9237ZM16.9637 10V0.559999H16.0037V10H16.9637ZM14.5625 10V0.559999H14.0825V10H14.5625ZM13.6025 10V0.559999H13.1225V10H13.6025ZM11.6825 10V0.559999H10.7225V10H11.6825ZM9.28125 10V0.559999H7.84125V10H9.28125ZM7.36125 10V0.559999H5.92125V10H7.36125ZM5.44125 10V0.559999H4.48125V10H5.44125ZM4 10V0.559999H3.52V10H4ZM2.08 10V0.559999H1.12V10H2.08ZM0.64 10V0.559999H0.16V10H0.64ZM350 26V16.56H349.52V26H350ZM349.04 26V16.56H347.6V26H349.04ZM346.64 26V16.56H345.68V26H346.64ZM344.719 26V16.56H344.239V26H344.719ZM343.759 26V16.56H342.319V26H343.759ZM341.359 26V16.56H340.399V26H341.359ZM339.438 26V16.56H338.957V26H339.438ZM337.517 26V16.56H337.037V26H337.517ZM336.557 26V16.56H335.597V26H336.557ZM334.156 26V16.56H333.196V26H334.156ZM332.716 26V16.56H331.276V26H332.716ZM330.796 26V16.56H329.356V26H330.796ZM328.875 26V16.56H327.915V26H328.875ZM326.475 26V16.56H325.995V26H326.475ZM324.555 26V16.56H324.075V26H324.555ZM323.594 26V16.56H323.114V26H323.594ZM321.674 26V16.56H320.714V26H321.674ZM320.234 26V16.56H318.794V26H320.234ZM318.312 26V16.56H317.352V26H318.312ZM316.872 26V16.56H315.432V26H316.872ZM313.992 26V16.56H313.512V26H313.992ZM313.031 26V16.56H312.071V26H313.031ZM311.591 26V16.56H310.631V26H311.591ZM309.671 26V16.56H308.711V26H309.671ZM307.75 26V16.56H307.27V26H307.75ZM305.83 26V16.56H304.39V26H305.83ZM303.91 26V16.56H302.95V26H303.91ZM302.469 26V16.56H301.989V26H302.469ZM301.509 26V16.56H300.069V26H301.509ZM298.629 26V16.56H297.669V26H298.629ZM297.188 26V16.56H296.227V26H297.188ZM295.747 26V16.56H294.787V26H295.747ZM293.827 26V16.56H292.867V26H293.827ZM291.906 26V16.56H290.946V26H291.906ZM290.466 26V16.56H289.026V26H290.466ZM288.546 26V16.56H288.066V26H288.546ZM286.625 26V16.56H286.145V26H286.625ZM284.705 26V16.56H283.265V26H284.705ZM282.785 26V16.56H281.825V26H282.785ZM281.344 26V16.56H280.864V26H281.344ZM279.424 26V16.56H278.464V26H279.424ZM277.984 26V16.56H276.544V26H277.984ZM276.062 26V16.56H275.582V26H276.062ZM275.102 26V16.56H274.622V26H275.102ZM273.182 26V16.56H272.222V26H273.182ZM270.781 26V16.56H270.301V26H270.781ZM269.821 26V16.56H268.381V26H269.821ZM266.941 26V16.56H265.981V26H266.941ZM265.5 26V16.56H265.02V26H265.5ZM264.54 26V16.56H264.06V26H264.54ZM262.62 26V16.56H261.66V26H262.62ZM260.219 26V16.56H259.259V26H260.219ZM258.779 26V16.56H257.819V26H258.779ZM256.859 26V16.56H255.899V26H256.859ZM254.938 26V16.56H254.457V26H254.938ZM253.977 26V16.56H253.497V26H253.977ZM252.057 26V16.56H251.097V26H252.057ZM249.656 26V16.56H249.176V26H249.656ZM248.696 26V16.56H247.256V26H248.696ZM245.816 26V16.56H244.856V26H245.816ZM244.375 26V16.56H243.895V26H244.375ZM243.415 26V16.56H242.455V26H243.415ZM241.015 26V16.56H240.535V26H241.015ZM239.094 26V16.56H238.134V26H239.094ZM237.654 26V16.56H236.694V26H237.654ZM235.734 26V16.56H234.774V26H235.734ZM233.812 26V16.56H232.852V26H233.812ZM232.372 26V16.56H230.932V26H232.372ZM230.452 26V16.56H229.972V26H230.452ZM228.531 26V16.56H228.051V26H228.531ZM226.611 26V16.56H225.171V26H226.611ZM224.691 26V16.56H223.731V26H224.691ZM223.25 26V16.56H222.77V26H223.25ZM221.33 26V16.56H219.89V26H221.33ZM219.41 26V16.56H218.45V26H219.41ZM217.969 26V16.56H217.489V26H217.969ZM217.009 26V16.56H215.569V26H217.009ZM214.129 26V16.56H213.169V26H214.129ZM212.688 26V16.56H212.207V26H212.688ZM211.247 26V16.56H210.287V26H211.247ZM209.327 26V16.56H207.887V26H209.327Z"
    fill="white" />
</svg>