<svg width="24" height="25" viewBox="0 0 24 25" fill="none" xmlns="http://www.w3.org/2000/svg">
  <g opacity="0.9">
    <path
      d="M19.5 8.5V5C19.5 4.17158 18.8285 3.5 18 3.5H4.5C3.67158 3.5 3 4.17158 3 5V20C3 20.8285 3.67157 21.5 4.5 21.5H18C18.8285 21.5 19.5 20.8285 19.5 20V16.5"
      stroke="black" stroke-opacity="0.9" stroke-width="1.5" stroke-linejoin="round" />
    <path
      d="M19.5 8.5H12.5C11.6716 8.5 11 9.17157 11 10V15C11 15.8284 11.6716 16.5 12.5 16.5H19.5C20.3284 16.5 21 15.8284 21 15V10C21 9.17157 20.3284 8.5 19.5 8.5Z"
      stroke="black" stroke-opacity="0.9" stroke-width="1.5" stroke-linejoin="round" />
    <path
      d="M14 12.5C14 11.9477 14.4477 11.5 15 11.5C15.5523 11.5 16 11.9477 16 12.5C16 13.0523 15.5523 13.5 15 13.5C14.4477 13.5 14 13.0523 14 12.5Z"
      fill="black" fill-opacity="0.9" />
  </g>
</svg>