<svg width="32" height="32" viewBox="0 0 32 32" fill="none" xmlns="http://www.w3.org/2000/svg">
  <path
    d="M16 8.737C11.6196 8.737 8.54788 10.5383 8.54788 10.5383C10.2323 9.09727 13.1714 8.26608 13.1714 8.26608L12.8939 8C10.1316 8.04709 7.63202 9.88136 7.63202 9.88136C4.82305 15.5066 5.0023 20.3642 5.0023 20.3642C7.29072 23.1992 10.689 22.9967 10.689 22.9967L11.8504 21.5863C9.8075 21.1625 8.51596 19.4247 8.51596 19.4247C8.51596 19.4247 11.5877 21.4309 16 21.4309C20.4123 21.4309 23.484 19.4247 23.484 19.4247C23.484 19.4247 22.1925 21.1648 20.1496 21.5863L21.311 22.9967C21.311 22.9967 24.7093 23.2016 26.9977 20.3642C26.9977 20.3642 27.177 15.5066 24.3655 9.88136C24.3655 9.88136 21.8659 8.04709 19.1036 8L18.8262 8.26608C18.8262 8.26608 21.7677 9.09727 23.4497 10.5383C23.4521 10.5383 20.3804 8.737 16 8.737ZM12.6189 14.6754C13.6821 14.6754 14.5464 15.5678 14.5317 16.6651C14.5317 17.7459 13.6821 18.6548 12.6189 18.6548C11.5729 18.6548 10.7234 17.7459 10.7234 16.6651C10.7234 15.5678 11.5557 14.6754 12.6189 14.6754ZM19.4326 14.6754C20.4958 14.6754 21.3454 15.5678 21.3454 16.6651C21.3454 17.7459 20.4958 18.6548 19.4326 18.6548C18.3866 18.6548 17.5371 17.7459 17.5371 16.6651C17.5371 15.5678 18.3695 14.6754 19.4326 14.6754Z"
    fill="#1A1A1A" />
</svg>