<svg width="32" height="32" viewBox="0 0 32 32" fill="none" xmlns="http://www.w3.org/2000/svg">
  <path
    d="M22.7023 8.57037C22.4448 11.2907 21.3307 17.8922 20.7636 20.939C20.5238 22.2282 20.0515 22.6605 19.5944 22.7028C18.6009 22.7947 17.8462 22.0426 16.8839 21.4082C15.378 20.4157 14.5272 19.7978 13.0654 18.8293C11.3762 17.71 12.4713 17.095 13.434 16.0892C13.686 15.826 18.0638 11.8222 18.1486 11.459C18.1591 11.4136 18.1693 11.244 18.0689 11.1549C17.9686 11.0658 17.8213 11.096 17.7147 11.1202C17.5637 11.1547 15.158 12.7535 10.4976 15.9166C9.81478 16.388 9.19629 16.6177 8.6421 16.6057C8.03118 16.5924 6.85604 16.2584 5.98239 15.9728C4.91088 15.6227 4.05924 15.4375 4.13341 14.8427C4.17204 14.5329 4.59634 14.2161 5.40631 13.8924C10.3942 11.7073 13.7203 10.2667 15.3845 9.57061C20.1361 7.58337 21.1234 7.23819 21.767 7.22667C21.9086 7.22431 22.225 7.25955 22.43 7.4268C22.5663 7.54595 22.6533 7.71221 22.6735 7.89269C22.7083 8.11679 22.7179 8.3441 22.7023 8.57037Z"
    fill="black" />
</svg>