<svg width="16" height="16" viewBox="0 0 16 16" fill="none" xmlns="http://www.w3.org/2000/svg">
<g opacity="0.9">
<path d="M6.33333 6.66667C7.622 6.66667 8.66667 5.622 8.66667 4.33333C8.66667 3.04467 7.622 2 6.33333 2C5.04467 2 4 3.04467 4 4.33333C4 5.622 5.04467 6.66667 6.33333 6.66667Z" stroke="black" stroke-width="1.5" stroke-linejoin="round"/>
<path d="M14.0013 11.6719L10.668 11.6719" stroke="black" stroke-width="1.5" stroke-linecap="round" stroke-linejoin="round"/>
<path d="M12.668 13L14.0013 11.6667L12.668 10.3333" stroke="black" stroke-width="1.5" stroke-linecap="round" stroke-linejoin="round"/>
<path d="M9 9.33594H6.26667C4.7732 9.33594 4.02647 9.33594 3.45603 9.62657C2.95426 9.88224 2.54631 10.2902 2.29065 10.792C2 11.3624 2 12.1091 2 13.6026V14.0026H9" stroke="black" stroke-width="1.5" stroke-linecap="round" stroke-linejoin="round"/>
</g>
</svg>
