<svg width="36" height="36" viewBox="0 0 36 36" fill="none" xmlns="http://www.w3.org/2000/svg">
<rect x="0.5" y="0.5" width="35" height="35" rx="17.5" stroke="black" stroke-opacity="0.12"/>
<path d="M17.9981 12.7689C14.8442 12.7689 12.6326 14.0659 12.6326 14.0659C13.8454 13.0283 15.9615 12.4299 15.9615 12.4299L15.7618 12.2383C13.7729 12.2722 11.9732 13.5929 11.9732 13.5929C9.95072 17.643 10.0798 21.1405 10.0798 21.1405C11.7274 23.1817 14.1742 23.0359 14.1742 23.0359L15.0104 22.0204C13.5395 21.7153 12.6096 20.4641 12.6096 20.4641C12.6096 20.4641 14.8212 21.9085 17.9981 21.9085C21.175 21.9085 23.3866 20.4641 23.3866 20.4641C23.3866 20.4641 22.4567 21.717 20.9858 22.0204L21.8221 23.0359C21.8221 23.0359 24.2688 23.1834 25.9165 21.1405C25.9165 21.1405 26.0455 17.643 24.0213 13.5929C24.0213 13.5929 22.2216 12.2722 20.2327 12.2383L20.033 12.4299C20.033 12.4299 22.1509 13.0283 23.3619 14.0659C23.3637 14.0659 21.152 12.7689 17.9981 12.7689ZM15.5638 17.0446C16.3292 17.0446 16.9515 17.6871 16.9409 18.4772C16.9409 19.2553 16.3292 19.9097 15.5638 19.9097C14.8106 19.9097 14.1989 19.2553 14.1989 18.4772C14.1989 17.6871 14.7983 17.0446 15.5638 17.0446ZM20.4696 17.0446C21.2351 17.0446 21.8468 17.6871 21.8468 18.4772C21.8468 19.2553 21.2351 19.9097 20.4696 19.9097C19.7165 19.9097 19.1048 19.2553 19.1048 18.4772C19.1048 17.6871 19.7041 17.0446 20.4696 17.0446Z" fill="#1A1A1A"/>
</svg>
