<svg width="36" height="36" viewBox="0 0 36 36" fill="none" xmlns="http://www.w3.org/2000/svg">
<rect x="0.5" y="0.5" width="35" height="35" rx="17.5" stroke="black" stroke-opacity="0.12"/>
<path d="M24.4735 13.363C24.264 15.64 23.3573 21.1654 22.8959 23.7156C22.7007 24.7946 22.3164 25.1565 21.9444 25.1919C21.1359 25.2688 20.5219 24.6393 19.7387 24.1083C18.5133 23.2776 17.821 22.7604 16.6315 21.9498C15.2568 21.0129 16.148 20.4982 16.9314 19.6563C17.1364 19.436 20.6989 16.0848 20.7679 15.7808C20.7765 15.7428 20.7847 15.6008 20.7031 15.5263C20.6215 15.4517 20.5015 15.477 20.4148 15.4973C20.2919 15.5261 18.3343 16.8643 14.5419 19.5118C13.9863 19.9064 13.483 20.0987 13.032 20.0886C12.5348 20.0775 11.5786 19.798 10.8676 19.5589C9.99571 19.2658 9.30269 19.1108 9.36304 18.613C9.39448 18.3537 9.73975 18.0885 10.3989 17.8176C14.4578 15.9887 17.1644 14.7829 18.5186 14.2002C22.3852 12.5369 23.1887 12.248 23.7124 12.2384C23.8276 12.2364 24.0851 12.2659 24.2519 12.4059C24.3628 12.5056 24.4336 12.6448 24.4501 12.7958C24.4783 12.9834 24.4862 13.1737 24.4735 13.363Z" fill="#1A1A1A"/>
</svg>
